# xmcd CD database file
#
# Track frame offsets:
#	150
#	16742
#	51050
#	86300
#	111665
#	142720
#	184472
#	219145
#	236005
#	263977
#	299872
#	316277
#
# Disc length: 4629 seconds
#
# Revision: 0
# Processed by: cddbd v1.5.1PL0 Copyright (c) Steve Scherf et al.
# Submitted via: CDex 1.51
#
DISCID=ac12130c
DTITLE=Various Artist - Disco House N' Breaks Vol.1
DYEAR=2004
DGENRE=House
TTITLE0=Junior Jack - Stupidisco(Radio Beat)
TTITLE1=Martin Solveig - Rocking Music
TTITLE2=Gold Bumpers - Feels So Good
TTITLE3=Ian Pooly feat.Jade And Danielle - Heaven(Tonka's High Pass Mix)
TTITLE4=Seven City - Slip Away(JJK Mix)
TTITLE5=Mark Picchiotti Presents. St. Jersey - Love Will Be Our Guide
TTITLE6=Kiss The Funk Feat. Sandy B - Back Together(KTF Main Mix)
TTITLE7=Dave Armstrong Feat. Ingrid Hakanson - Out Of Time(Armstrong's Radio Edit)
TTITLE8=Twilo People - Let's Rock(Club Mix)
TTITLE9=Monica Nogueira - Infancia Magica(Martin Solveig Petit Dub)
TTITLE10=Pinktronix - Song About Nothing(Vocal Mix)
TTITLE11=C-Mos - 2 Million Ways(Original)
EXTD=YEAR: 2004
EXTT0=
EXTT1=
EXTT2=
EXTT3=
EXTT4=
EXTT5=
EXTT6=
EXTT7=
EXTT8=
EXTT9=
EXTT10=
EXTT11=
PLAYORDER=
